<svg width="35" height="26" viewBox="0 0 35 26" fill="none" xmlns="http://www.w3.org/2000/svg">
<path fill-rule="evenodd" clip-rule="evenodd" d="M34.8126 13.2164L31.5255 9.47335C31.5255 8.90571 31.1019 8.64499 31.1019 8.64499L30.3155 7.9701C30.3762 5.17809 27.21 4.84057 27.21 4.84057C27.21 4.84057 27.3761 4.14159 27.0891 3.7974C25.475 1.86269 21.0183 1.24672 21.0183 1.24672C20.3502 1.07266 19.212 0.867233 17.584 0.867233C16.2392 0.867233 15.3175 0.981458 14.6249 1.13113C14.6249 1.13113 10.1301 1.78618 7.91103 3.79755C7.5667 4.10977 7.78995 4.84072 7.78995 4.84072C7.78995 4.84072 4.62391 5.17825 4.68445 7.97025L3.89802 8.64515C3.89802 8.64515 3.47463 8.90602 3.47463 9.4735L0.18731 13.2164C0.18731 13.2164 -0.155621 13.6459 0.0865418 14.1214C0.328705 14.597 2.74854 16.5453 2.74854 16.5453C2.74854 16.5453 3.19224 16.7139 3.49474 16.622C3.49474 16.622 3.88467 17.1998 5.30957 17.0361C5.30957 17.0361 4.82564 16.6065 5.09449 16.1361C5.09449 16.1361 6.22386 15.502 7.11106 16.1361C7.11106 16.1361 6.19697 17.3431 6.19697 18.2635C6.19697 18.2635 5.68616 18.6112 5.55173 17.4452C5.55173 17.4452 4.74499 17.7112 4.66433 18.6521C4.66433 18.6521 3.69628 19.5318 4.79876 19.9815C4.79876 19.9815 5.6055 21.4952 6.06255 21.8021C6.51979 22.1089 6.6811 21.7612 6.6811 21.7612H7.05749C7.05749 21.7612 7.40699 22.0474 7.86403 21.7612C7.86403 21.7612 8.13288 21.7201 8.29419 21.8224C8.4555 21.9246 11.225 23.4178 11.3863 23.6427C11.5479 23.8678 12.8989 25.3079 13.9139 25.4255C14.5271 25.6048 15.7514 25.8672 17.5842 25.8672C19.5036 25.8672 20.77 25.5664 21.3503 25.3885C22.302 25.2134 23.4535 23.8668 23.614 23.6429C23.7755 23.4181 26.5448 21.925 26.7061 21.8225C26.8672 21.7201 27.1363 21.7613 27.1363 21.7613C27.5933 22.0475 27.9426 21.7613 27.9426 21.7613H28.3192C28.3192 21.7613 28.4807 22.109 28.9376 21.8022C29.3944 21.4955 30.2014 19.9816 30.2014 19.9816C31.304 19.5318 30.336 18.6523 30.336 18.6523C30.2555 17.7113 29.4488 17.4453 29.4488 17.4453C29.3142 18.6114 28.8035 18.2637 28.8035 18.2637C28.8035 17.3432 27.8891 16.1363 27.8891 16.1363C28.7763 15.5021 29.9058 16.1363 29.9058 16.1363C30.1747 16.6067 29.6907 17.0363 29.6907 17.0363C31.1158 17.1999 31.5056 16.6221 31.5056 16.6221C31.8083 16.7141 32.2516 16.5455 32.2516 16.5455C32.2516 16.5455 34.6716 14.5971 34.9136 14.1216C35.1555 13.6461 34.8126 13.2164 34.8126 13.2164V13.2164Z" fill="black"/>
<path fill-rule="evenodd" clip-rule="evenodd" d="M33.697 14.0703C33.5088 14.0498 33.1053 14.0091 32.7289 14.0091C32.3527 14.0091 32.4601 14.2543 32.5678 14.2543C32.6751 14.2543 32.7829 14.4387 32.756 14.5408C32.7287 14.6432 32.3258 14.6228 32.0299 14.5408C31.7344 14.4592 31.5729 14.05 31.5729 14.05C31.4651 14.8273 31.9761 14.9909 32.2181 14.9297C32.4601 14.8682 33.5355 14.8068 33.5355 14.8068C33.5355 14.8068 32.2986 15.8703 31.8415 16.1362C31.3845 16.402 30.9812 16.2181 30.9812 16.2181C30.9812 16.2181 30.094 15.7069 29.1259 15.4613C28.1975 15.2257 25.9264 16.2793 25.9264 16.2793C25.7918 16.8726 26.0069 17.527 26.0069 17.527C26.2761 17.8952 27.8622 18.8976 27.9968 18.8768C28.131 18.8564 28.8304 18.9383 28.9644 18.9588C29.0991 18.9792 29.2068 19.1224 29.3141 19.1224C29.4219 19.1224 30.0671 19.02 30.0671 19.02C30.551 19.4496 30.0131 19.4904 29.7979 19.5316C29.5828 19.5725 29.5828 19.4087 29.5828 19.4087L29.1795 19.2451L28.8033 19.4496C28.8033 19.4496 28.5074 19.4905 28.3459 19.4701C28.1848 19.4496 27.9697 19.1019 27.9697 19.1019C27.862 19.3472 28.1579 19.5928 28.2385 19.6132C28.3192 19.6337 28.776 19.5928 28.776 19.5928C28.8033 19.8588 29.0453 19.8793 29.0453 19.8793C29.4219 19.6132 29.4486 19.8177 29.4486 19.8177C29.1793 20.2065 29.3408 20.2065 29.3408 20.2065L29.6368 20.2474C29.0451 21.311 28.9373 20.9223 28.8838 20.8406C28.83 20.7587 28.6149 20.7178 28.6149 20.7178C28.6149 20.7178 28.373 20.8814 28.1848 20.9223C27.9966 20.9633 27.9155 20.7382 27.9155 20.7382C27.9155 20.7382 27.8618 20.8202 27.6467 20.9018C27.4316 20.9838 27.3511 20.9018 27.3511 20.9018C27.0552 21.1474 26.5982 21.1269 26.5713 20.6361C26.5444 20.145 26.4098 20.1041 26.4098 20.1041C26.4635 20.4108 26.1947 20.5744 26.1947 20.5744L25.7914 20.5335C25.8723 21.2084 25.5226 21.0653 25.5226 21.0653C25.5226 21.0653 25.3344 20.8405 25.146 21.0653C24.9578 21.2904 24.8236 21.2084 24.8236 21.2084C24.8236 21.1268 24.6621 21.0448 24.6621 21.0448C24.6621 21.0448 24.4201 21.3313 24.3928 21.1063C24.3751 20.9707 24.2882 20.8458 24.1508 20.7584C24.2586 21.2287 23.9358 21.6584 23.9358 21.6584C24.205 21.4948 24.339 21.5764 24.339 21.5764C24.4468 21.6788 24.635 21.6788 24.9038 21.6379C25.1727 21.597 25.2535 21.7608 25.1994 21.9447C25.1456 22.1288 23.8013 23.0697 23.8013 23.0697C23.8013 23.0697 23.3712 22.9265 22.7795 23.765C22.1879 24.6038 21.8585 24.5731 21.8585 24.5731V6.50416C22.2221 5.81487 23.8013 5.47961 23.8013 5.47961C22.7546 5.45007 22.1273 5.88804 21.8585 6.13497V2.63762C23.0992 2.57869 25.1546 3.99029 25.3338 4.06816C25.522 4.14997 25.4684 3.94545 25.4684 3.94545C23.3728 2.59278 22.244 2.40659 21.8585 2.38857V1.95242C22.5758 1.80653 25.0153 2.83592 25.8177 3.33191C26.6784 3.86365 26.4361 4.94772 26.4361 4.94772C24.7959 5.09088 24.7421 5.60217 24.7421 5.60217C25.4411 5.17269 27.2428 5.11134 28.0227 5.52037C28.8025 5.92939 28.2109 5.84759 27.4579 5.86804C26.7053 5.88849 26.5707 7.13618 26.8395 7.11573C27.5105 7.06468 27.5656 6.31797 27.9691 6.21571C28.3724 6.11346 29.0445 6.23617 29.0445 6.23617C29.6089 6.50203 29.7166 8.24056 29.7166 8.24056C31.3837 9.12012 30.8731 9.63141 30.8731 9.63141C30.8731 9.63141 33.8844 12.9041 34.0459 13.0882C34.207 13.2722 34.3952 13.4154 34.4225 13.7631C34.4499 14.1113 33.8852 14.0906 33.697 14.0703V14.0703ZM4.58366 16.218C4.58366 16.218 4.07285 16.3816 3.99199 16.4837C3.91134 16.5861 4.12662 16.8317 4.82562 16.8521C4.82562 16.8521 4.47612 16.4837 4.58366 16.218V16.218ZM5.82056 18.6723C5.82056 18.6723 5.47106 18.9179 5.12155 18.7132L5.09467 18.3655C5.09467 18.3655 5.14844 18.1203 5.30975 18.0179C5.30975 18.0179 5.47106 18.5496 5.82056 18.6723V18.6723ZM6.4658 18.652C6.4658 18.652 6.78841 16.8521 7.54119 16.3408C8.29416 15.8293 8.75121 16.3613 8.42859 16.9133C8.10597 17.4657 7.40677 18.386 7.00349 18.5496C6.60042 18.7132 6.4658 18.652 6.4658 18.652V18.652Z" fill="white"/>
<path fill-rule="evenodd" clip-rule="evenodd" d="M30.4162 16.2181C30.4162 16.2181 30.9273 16.3817 31.0079 16.4838C31.0884 16.5862 30.8737 16.8317 30.1743 16.8522C30.1743 16.8522 30.524 16.4838 30.4162 16.2181ZM29.1793 18.6724C29.1793 18.6724 29.529 18.9179 29.8787 18.7133L29.9056 18.3656C29.9056 18.3656 29.8519 18.1203 29.6905 18.0179C29.6905 18.0179 29.529 18.5497 29.1793 18.6724V18.6724ZM28.5341 18.6521C28.5341 18.6521 28.2117 16.8522 27.4587 16.3409C26.7061 15.8293 26.2487 16.3614 26.5715 16.9134C26.8939 17.4657 27.5933 18.3861 27.9966 18.5497C28.3999 18.7133 28.5341 18.6521 28.5341 18.6521V18.6521ZM13.3089 2.37257C12.9893 2.37454 11.7815 2.49301 9.53109 3.94552C9.53109 3.94552 9.47712 4.15003 9.66551 4.06823C9.84833 3.98884 11.9852 2.51952 13.3089 2.62829V6.38666L13.2954 6.29774C13.2954 6.29774 12.6499 5.43878 11.1981 5.47968C11.1981 5.47968 12.8762 5.97854 13.3089 6.64677V24.799C13.3089 24.799 12.8114 24.6044 12.2198 23.7655C11.6283 22.927 11.1981 23.0702 11.1981 23.0702C11.1981 23.0702 9.85371 22.1293 9.79994 21.9452C9.74617 21.7611 9.82682 21.5975 10.0957 21.6384C10.3645 21.6793 10.5527 21.6793 10.6603 21.5769C10.6603 21.5769 10.7947 21.4953 11.0635 21.6589C11.0635 21.6589 10.7409 21.2293 10.8484 20.7589C10.8484 20.7589 10.6334 20.8817 10.6065 21.1069C10.5796 21.3317 10.3374 21.0453 10.3374 21.0453C10.3374 21.0453 10.1761 21.1273 10.1761 21.209C10.1761 21.209 10.0415 21.2909 9.85331 21.0658C9.66512 20.841 9.47692 21.0658 9.47692 21.0658C9.47692 21.0658 9.12742 21.209 9.20807 20.5341L8.8048 20.575C8.8048 20.575 8.53595 20.4114 8.58952 20.1046C8.58952 20.1046 8.4551 20.1455 8.42821 20.6366C8.40133 21.1275 7.94409 21.1479 7.64835 20.9023C7.64835 20.9023 7.5677 20.9843 7.35262 20.9023C7.13754 20.8207 7.08377 20.7387 7.08377 20.7387C7.08377 20.7387 7.00312 20.9638 6.81492 20.9228C6.62673 20.8819 6.38477 20.7183 6.38477 20.7183C6.38477 20.7183 6.16969 20.7592 6.11592 20.8411C6.06195 20.9228 5.95441 21.3115 5.36294 20.2479L5.65868 20.207C5.65868 20.207 5.81998 20.207 5.55114 19.8183C5.55114 19.8183 5.57802 19.6137 5.95441 19.8798C5.95441 19.8798 6.19637 19.8593 6.22346 19.5933C6.22346 19.5933 6.6805 19.6342 6.76115 19.6137C6.84181 19.5933 7.13754 19.3477 7.03 19.1025C7.03 19.1025 6.81492 19.4501 6.65361 19.4706C6.49211 19.491 6.19657 19.4501 6.19657 19.4501L5.82018 19.2456L5.41691 19.4092C5.41691 19.4092 5.41691 19.5728 5.20183 19.5321C4.98675 19.491 4.44906 19.4501 4.93298 19.0205C4.93298 19.0205 5.57842 19.1229 5.68576 19.1229C5.7933 19.1229 5.90104 18.9798 6.03526 18.9593C6.16969 18.9389 6.86889 18.8569 7.00312 18.8773C7.13754 18.8981 8.72415 17.8957 8.9928 17.5275C8.9928 17.5275 9.20807 16.8731 9.07345 16.2799C9.07345 16.2799 6.80238 15.2262 5.87375 15.4618C4.9057 15.7074 4.0185 16.2187 4.0185 16.2187C4.0185 16.2187 3.61523 16.4027 3.15799 16.1367C2.70074 15.8707 1.46404 14.8074 1.46404 14.8074C1.46404 14.8074 2.53963 14.8686 2.7816 14.9302C3.02356 14.9914 3.53437 14.8278 3.42683 14.0505C3.42683 14.0505 3.26553 14.4597 2.96979 14.5413C2.67406 14.6233 2.27059 14.6437 2.2437 14.5413C2.21682 14.4392 2.32436 14.2549 2.4319 14.2549C2.53944 14.2549 2.64698 14.0096 2.27059 14.0096C1.894 14.0096 1.49073 14.0505 1.30253 14.0708C1.11434 14.0913 0.549757 14.1119 0.576642 13.764C0.603527 13.4164 0.791721 13.2732 0.95303 13.0891C1.11454 12.9051 4.12604 9.63238 4.12604 9.63238C4.12604 9.63238 3.61523 9.1211 5.28229 8.24153C5.28229 8.24153 5.38983 6.50301 5.95441 6.23714C5.95441 6.23714 6.62673 6.11443 7.03 6.21669C7.43328 6.31895 7.48824 7.06565 8.15917 7.1167C8.42821 7.13715 8.29359 5.88946 7.54081 5.86901C6.78804 5.84856 6.19657 5.93037 6.97623 5.52134C7.75609 5.11216 9.55758 5.17366 10.2566 5.60314C10.2566 5.60314 10.2028 5.09186 8.56264 4.9487C8.56264 4.9487 8.32067 3.86462 9.18099 3.33288C10.0413 2.80099 12.784 1.65556 13.2679 2.00339L13.3083 1.93703V2.37257H13.3089V2.37257ZM13.8733 24.9393V1.79509C14.2825 1.65723 15.5485 1.29668 17.5838 1.29668C19.6187 1.29668 20.8843 1.65708 21.2943 1.79509V24.9393C20.8851 25.0772 19.6191 25.4376 17.5838 25.4376C15.5493 25.4376 14.2835 25.0772 13.8733 24.9393V24.9393Z" fill="white"/>
<path fill-rule="evenodd" clip-rule="evenodd" d="M12.4349 3.31169C12.4349 3.31169 11.413 3.33214 10.2301 4.21171C10.2301 4.21171 9.58468 4.62074 9.61156 4.72299C9.63845 4.82525 11.3326 3.70027 12.1929 3.55711C13.0532 3.41395 12.4349 3.31169 12.4349 3.31169ZM10.9829 4.82525C11.1175 4.78435 12.0316 4.66164 12.3273 4.8048C12.6231 4.94796 12.4886 4.70254 12.3811 4.62074C12.2736 4.53893 11.3862 4.39577 10.956 4.66164C10.5258 4.92751 10.9829 4.82525 10.9829 4.82525V4.82525ZM9.82684 5.80707C9.82684 5.80707 10.4452 5.80707 10.5258 5.86842C10.6065 5.92978 10.7947 6.23655 10.7409 6.40016C10.6872 6.56377 10.6065 6.09339 10.4452 6.05249L9.88061 5.90933L9.82684 5.80707V5.80707ZM8.26732 5.74572L9.23517 6.05249C9.23517 6.05249 9.31583 6.33881 9.15452 6.54332L8.93924 6.68648C8.93924 6.68648 8.99301 6.257 8.77793 6.13414C8.56266 6.01143 8.26712 5.88873 8.26712 5.88873C8.26712 5.88873 8.10601 5.78662 8.26732 5.74572V5.74572ZM12.7306 8.03658C12.7306 8.03658 12.7919 7.41986 12.408 7.15702C12.1389 6.97295 12.6231 7.05476 12.6231 7.05476C12.6231 7.05476 12.9216 7.50287 12.865 7.97523C12.8113 8.42516 12.7306 8.03658 12.7306 8.03658V8.03658ZM8.72436 9.20247C8.72436 9.20247 9.85353 8.09794 7.86385 8.09794C7.86385 8.09794 7.81008 7.95478 7.91762 7.97508C8.02516 7.99553 8.8319 8.03643 7.9445 7.6683C7.9445 7.6683 7.9445 7.5456 8.07893 7.56605C8.21335 7.5865 9.58468 8.09794 8.53597 7.38198C8.53597 7.38198 8.72416 7.30018 9.28875 7.40244C9.85333 7.50469 9.55779 7.13657 9.26186 6.99341C9.26186 6.99341 9.96087 7.11611 10.2299 7.23882C10.4988 7.36153 10.7407 7.40244 10.445 6.9116C10.445 6.9116 10.5256 6.82979 10.6065 6.9116C10.6872 6.99341 10.8754 7.40243 11.3055 7.38198L11.3324 7.03431C11.3324 7.03431 12.3273 7.87297 12.3811 8.03658C12.4349 8.20019 12.4618 8.81389 12.1929 9.05931L12.0854 8.62983C12.0854 8.62983 12.0047 8.52757 11.7896 8.81389C11.7896 8.81389 11.6014 8.79344 11.5746 8.71163C11.5746 8.71163 11.3326 8.67073 11.01 8.99795C11.01 8.99795 10.8218 9.05931 10.8218 8.95705C10.8218 8.85479 10.8487 8.67073 10.768 8.58892C10.6874 8.50712 10.3647 9.28442 10.015 9.42758C10.015 9.42758 9.96127 9.16171 9.93438 9.01855C9.93438 9.01855 9.63865 9.26397 9.45025 9.30487V8.87539C9.45025 8.87539 9.34271 8.83449 9.07387 9.07991C8.80502 9.32517 8.72436 9.20247 8.72436 9.20247V9.20247ZM5.26916 8.80041C5.31835 8.70345 5.42111 8.5306 5.48842 8.47939C5.49779 8.47227 5.50521 8.46382 5.51028 8.45451C5.51535 8.4452 5.51795 8.43523 5.51795 8.42516C5.51795 8.41509 5.51535 8.40511 5.51028 8.39581C5.50521 8.3865 5.49779 8.37805 5.48842 8.37092C5.47906 8.3638 5.46794 8.35815 5.45571 8.3543C5.44348 8.35044 5.43037 8.34846 5.41713 8.34846C5.40389 8.34846 5.39078 8.35044 5.37854 8.3543C5.36631 8.35815 5.3552 8.3638 5.34583 8.37092C5.22654 8.46167 5.0957 8.71663 5.08097 8.74526C5.07621 8.75466 5.07393 8.76468 5.07426 8.77475C5.07459 8.78482 5.07753 8.79475 5.0829 8.80395C5.08827 8.81316 5.09598 8.82147 5.10557 8.82841C5.11516 8.83536 5.12646 8.84079 5.13882 8.84441C5.15118 8.84803 5.16435 8.84977 5.17759 8.84952C5.19083 8.84926 5.20387 8.84703 5.21597 8.84294C5.22808 8.83886 5.239 8.833 5.24813 8.8257C5.25726 8.8184 5.2644 8.80981 5.26916 8.80041ZM5.70131 8.91902C5.7035 8.91402 5.9142 8.41698 6.14302 8.18474C6.1572 8.1684 6.16264 8.14856 6.15823 8.12927C6.15383 8.10998 6.1399 8.0927 6.11931 8.08096C6.09871 8.06922 6.073 8.0639 6.04742 8.0661C6.02185 8.0683 5.99834 8.07784 5.98171 8.09279C5.73238 8.34563 5.5181 8.85085 5.50913 8.87236C5.501 8.89175 5.50332 8.9128 5.51559 8.93088C5.52786 8.94897 5.54907 8.9626 5.57455 8.96879C5.60004 8.97498 5.62771 8.97321 5.65148 8.96388C5.67525 8.95454 5.69318 8.93841 5.70131 8.91902V8.91902ZM6.16054 8.95462C6.23184 8.73026 6.39972 8.37714 6.53375 8.33184C6.55709 8.32305 6.57507 8.30774 6.58392 8.2891C6.59277 8.27047 6.59181 8.24995 6.58125 8.23184C6.57068 8.21373 6.55132 8.19943 6.52722 8.19192C6.50311 8.18441 6.47612 8.18428 6.4519 8.19156C6.17827 8.28397 5.99804 8.81343 5.96458 8.91872C5.95832 8.93849 5.96265 8.95934 5.97659 8.97668C5.99054 8.99403 6.01298 9.00644 6.03896 9.01121C6.06495 9.01597 6.09236 9.01268 6.11516 9.00207C6.13796 8.99146 6.15429 8.97439 6.16054 8.95462V8.95462ZM6.58493 9.0287C6.66936 8.88206 6.8012 8.70512 6.86712 8.67512C6.88864 8.66416 6.9038 8.64734 6.90947 8.62812C6.91514 8.6089 6.91089 8.58876 6.89759 8.57186C6.8843 8.55495 6.86297 8.54258 6.83803 8.5373C6.81308 8.53202 6.78642 8.53423 6.76356 8.54347C6.60942 8.61392 6.43397 8.90872 6.40032 8.9672C6.39501 8.97642 6.39214 8.98634 6.39187 8.99641C6.39161 9.00647 6.39395 9.01648 6.39877 9.02586C6.40358 9.03523 6.41078 9.04379 6.41995 9.05105C6.42912 9.05831 6.44007 9.06413 6.45219 9.06817C6.46432 9.07221 6.47736 9.07439 6.4906 9.07459C6.50383 9.07479 6.51698 9.07301 6.5293 9.06935C6.54163 9.06568 6.55289 9.06021 6.56243 9.05323C6.57197 9.04626 6.57962 9.03792 6.58493 9.0287ZM7.21065 9.13232C7.23255 9.02582 7.29787 8.91569 7.34268 8.90993C7.36764 8.90545 7.38943 8.89392 7.40364 8.87767C7.41785 8.86143 7.42342 8.84168 7.41922 8.82244C7.41502 8.80319 7.40136 8.78587 7.38102 8.77399C7.36067 8.76211 7.33515 8.75655 7.30962 8.75844C7.08757 8.78662 7.02225 9.05521 7.0115 9.10884C7.00741 9.12893 7.01397 9.14943 7.02975 9.16584C7.04553 9.18225 7.06923 9.19322 7.09564 9.19633C7.12205 9.19944 7.149 9.19445 7.17057 9.18245C7.19214 9.17044 7.20655 9.15241 7.21065 9.13232V9.13232ZM9.19096 10.4194C9.24394 10.4036 9.71193 10.2615 9.83361 10.0996C9.84534 10.082 9.84775 10.0617 9.84033 10.0428C9.83291 10.0239 9.81623 10.0079 9.79374 9.99816C9.77125 9.98837 9.74468 9.98553 9.71952 9.99023C9.69436 9.99493 9.67253 10.0068 9.65856 10.0234C9.59324 10.1102 9.29233 10.2247 9.11808 10.2762C9.09401 10.2841 9.07487 10.2987 9.06471 10.3171C9.05455 10.3354 9.05415 10.356 9.0636 10.3746C9.07306 10.3932 9.09162 10.4082 9.11538 10.4166C9.13915 10.4249 9.16624 10.426 9.19096 10.4194ZM12.0083 10.1855C12.1668 10.0013 12.5356 9.55893 12.5356 9.42758C12.5356 9.40725 12.525 9.38776 12.5061 9.37338C12.4872 9.359 12.4616 9.35093 12.4349 9.35093C12.4081 9.35093 12.3825 9.359 12.3636 9.37338C12.3447 9.38776 12.3341 9.40725 12.3341 9.42758V9.42698C12.3281 9.49591 12.0728 9.83085 11.8398 10.1016C11.8275 10.1185 11.824 10.1384 11.8301 10.1572C11.8362 10.1761 11.8515 10.1924 11.8728 10.2031C11.8941 10.2137 11.92 10.2178 11.9451 10.2145C11.9702 10.2113 11.9928 10.2009 12.0083 10.1855V10.1855ZM11.5911 11.119C11.6948 11.1058 12.6129 10.9813 12.8451 10.6722C12.8568 10.6547 12.8593 10.6343 12.8518 10.6155C12.8444 10.5966 12.8277 10.5806 12.8052 10.5708C12.7828 10.561 12.7562 10.5582 12.731 10.5629C12.7059 10.5676 12.684 10.5794 12.6701 10.596C12.5133 10.8046 11.8141 10.9349 11.558 10.9675C11.5331 10.972 11.5113 10.9835 11.4971 10.9998C11.4829 11.016 11.4773 11.0358 11.4815 11.055C11.4857 11.0742 11.4993 11.0916 11.5197 11.1034C11.54 11.1153 11.5656 11.1209 11.5911 11.119V11.119ZM4.50284 10.6138C4.50284 10.6138 4.96009 10.532 4.63727 9.75465C4.63727 9.75465 4.44907 9.48879 5.52467 9.44788C5.52467 9.44788 5.2827 9.6524 5.33647 9.79556C5.33647 9.79556 6.19699 9.61149 6.27764 9.63195C6.3583 9.6524 6.76157 9.87736 6.86911 9.95917C6.97665 10.0411 7.16484 9.97962 7.16484 9.97962C7.16484 9.97962 7.21861 9.85691 7.0573 9.77511C6.8958 9.6933 7.11107 9.55014 7.32615 9.61149C7.54123 9.67285 8.18647 9.7342 8.24024 9.85691C8.24024 9.85691 7.78319 9.85691 7.70254 9.95917C7.62188 10.0614 7.62188 10.225 7.64877 10.3068L7.11087 10.3477C7.11087 10.3477 6.76137 10.4909 6.76137 10.5932L6.65383 10.5318L6.68072 10.1432C6.68072 10.1432 6.43875 9.85691 6.11613 9.89781C6.11613 9.89781 5.87417 10.1228 5.84709 10.4091C5.84709 10.4091 5.63201 10.3477 5.63201 10.0205C5.63201 10.0205 5.20185 10.0205 5.14808 10.1432C5.14808 10.1432 4.95989 10.7365 5.79332 10.7978C5.79332 10.7978 5.87397 10.9205 5.76643 10.941L4.9328 10.8592C4.9328 10.8592 4.87903 12.0046 3.93786 12.4545L3.88409 11.6774C3.88409 11.6774 5.17477 11.4524 4.42199 10.716L4.50284 10.6138V10.6138Z" fill="black"/>
<path fill-rule="evenodd" clip-rule="evenodd" d="M7.70236 11.7384C7.70236 11.7384 8.77795 11.9634 8.1594 12.0658V12.1681C8.1594 12.1681 8.5089 12.1476 8.42845 12.2499C8.34779 12.3521 8.34779 12.4544 8.45533 12.4544C8.56287 12.4544 8.61684 12.5362 8.56287 12.5975C8.5091 12.6589 8.83192 12.7407 8.83192 12.7407C8.83192 12.7407 8.88569 12.8839 8.56287 12.8225L8.58976 13.0066C8.58976 13.0066 8.77815 12.9861 8.83192 13.0679C8.88569 13.1497 8.5091 13.2726 8.13271 13.3135C7.75632 13.3545 6.16992 13.4157 4.6102 13.9475L4.63708 14.1726C4.63708 14.1726 5.98153 13.5794 8.99303 13.3135C8.99303 13.3135 10.3644 13.8045 10.9291 14.2543C10.9291 14.2543 11.2285 14.2356 10.8485 14.0702C10.4721 13.9066 10.5527 13.7634 10.5527 13.7634L10.4452 13.5998C10.4452 13.5998 10.4452 13.3135 10.6605 13.4157C10.8756 13.5182 12.0856 13.9475 12.8115 15.134C12.8115 15.134 12.9459 15.1544 12.8115 14.8067C12.677 14.4591 12.677 14.1931 12.8921 14.1726V14.0702C12.8921 14.0702 12.3813 13.7634 12.8115 13.8045C12.8115 13.8045 12.9997 13.9473 12.9728 13.7634C12.9459 13.5794 11.6821 12.884 11.6821 12.884C11.6821 12.884 11.3595 12.5977 11.6552 12.6386C11.951 12.6795 12.0316 12.8431 12.0316 12.8431C12.0316 12.8431 12.3542 12.884 11.8972 12.5363C11.6552 12.3523 12.2198 12.5363 12.2198 12.5363C12.2198 12.5363 12.4887 12.475 12.2738 12.3727C12.0587 12.2703 11.6554 12.0453 11.6554 12.0453C11.6554 12.0453 11.6823 11.9226 11.8436 11.9431C12.0049 11.9635 12.1125 11.759 11.3059 11.7795C11.3059 11.7795 11.0371 11.5545 12.1125 11.4523C13.1879 11.35 11.8436 11.2068 11.2522 11.3704C10.6607 11.5341 10.822 11.125 10.9295 11.084C11.0371 11.0431 11.4941 10.7977 11.521 10.6749C11.5479 10.5522 11.3059 10.634 11.1446 10.7772C10.9831 10.9204 10.822 10.9817 10.822 10.8999C10.822 10.8181 10.7951 10.7568 10.6607 10.7568C10.5263 10.7568 10.4454 10.6545 10.6069 10.5931C10.7682 10.5318 11.3866 10.2455 11.3866 10.1023C11.3866 9.95915 11.3328 9.95915 11.0908 10.0819C10.8489 10.2046 10.6607 10.4909 10.1499 10.5318C9.63906 10.5727 10.2305 10.3273 10.2305 10.3273C10.2305 10.3273 10.4725 10.1228 10.1499 10.1841C9.82725 10.2455 9.55383 10.6496 8.83232 10.7365C8.3215 10.7978 9.02051 10.8796 9.12805 10.9205C9.23559 10.9614 9.07408 10.9614 8.83232 11.0432C8.59015 11.125 8.99363 11.1455 9.10116 11.1659C9.2089 11.1865 9.18182 11.3091 9.18182 11.3091C9.18182 11.3091 8.96674 11.4523 9.10116 11.5341C9.23559 11.6159 8.96674 11.6159 8.96674 11.6159L8.93986 11.7386C8.93986 11.7386 8.29462 11.6568 7.91823 11.6159C7.54105 11.5748 7.70236 11.7384 7.70236 11.7384V11.7384Z" fill="black"/>
<path fill-rule="evenodd" clip-rule="evenodd" d="M4.47644 13.8048C4.47644 13.8048 5.63269 13.0682 7.08467 12.8024L7.05778 12.7001C7.05778 12.7001 5.47138 12.8842 4.39579 13.5388C4.39579 13.5388 4.23448 13.7024 4.47644 13.8048V13.8048ZM5.04102 14.3568C5.04102 14.3568 5.17545 14.1116 5.39053 14.1116L8.53645 14.0705C8.53645 14.0705 9.47762 14.2137 9.63893 14.3161C9.63893 14.3161 6.97713 14.1932 5.04102 14.3568ZM5.4443 14.7865C5.4443 14.7865 5.06791 14.5817 5.63249 14.5614C6.19707 14.5409 8.85907 15.1137 9.50431 15.5227C9.50451 15.5226 6.33169 14.725 5.4443 14.7865ZM3.93874 14.4592C3.93874 14.3773 3.99251 14.3161 4.15382 14.3161C4.31513 14.3161 4.3689 14.4182 4.3689 14.4797C4.3689 14.5409 4.26136 14.6638 4.15382 14.6433C4.04628 14.6229 3.93874 14.4592 3.93874 14.4592V14.4592ZM4.3689 14.8477C4.47644 14.8681 4.55709 15.0113 4.39579 15.0522C4.23448 15.0932 4.20759 14.9296 4.20759 14.9296L4.3689 14.8477ZM3.80432 14.8477L3.64301 14.7456C3.64301 14.7456 3.53547 14.8272 3.61613 14.9092C3.69678 14.9908 3.80432 14.9908 3.80432 14.9908C3.80432 14.9908 4.10005 15.052 4.04628 14.9092C3.99231 14.7657 3.85809 14.7865 3.80432 14.8477V14.8477ZM4.34202 15.257C4.34202 15.257 4.18071 15.2979 4.20759 15.3591C4.23448 15.4206 4.34202 15.4411 4.34202 15.4411C4.34202 15.4411 4.47644 15.3182 4.34202 15.257ZM3.75035 15.3794C3.75035 15.3794 3.45462 15.4818 3.53527 15.5433C3.61593 15.6045 3.77724 15.5638 3.77724 15.5638L3.75035 15.3794ZM3.34708 15.1546C3.34708 15.1546 3.45462 15.3182 3.34708 15.3182C3.23954 15.3182 3.132 15.1953 3.132 15.1953C3.132 15.1953 3.21265 15.0932 3.34708 15.1546V15.1546ZM3.07823 15.5226C3.07823 15.5226 3.10511 15.3794 3.21265 15.4205C3.32019 15.4614 3.34708 15.5226 3.26642 15.5433C3.18577 15.5638 3.07823 15.6454 3.07823 15.6454C3.07823 15.6454 2.67496 15.5638 3.07823 15.5226ZM2.83627 15.2978C2.83627 15.2978 2.89003 15.1953 2.7825 15.1953C2.67496 15.1953 2.64807 15.2978 2.64807 15.2978C2.64807 15.2978 2.75561 15.359 2.83627 15.2978ZM11.3598 17.9157C11.3598 17.9157 11.306 18.6113 11.064 18.7341C10.8221 18.8566 10.7952 19.1225 11.4673 18.8157C12.1394 18.5089 11.763 17.8136 11.763 17.8136C11.763 17.8136 11.4135 17.4864 11.3598 17.9157ZM10.5072 16.4951C10.5094 16.5073 10.7199 17.7124 9.25298 18.6129C9.23316 18.6259 9.22077 18.6442 9.21841 18.6641C9.21606 18.6839 9.22393 18.7037 9.24036 18.7192C9.2568 18.7347 9.28051 18.7447 9.3065 18.7472C9.33248 18.7497 9.35871 18.7444 9.37964 18.7324C10.9392 17.775 10.7169 16.5257 10.7068 16.473C10.7017 16.4537 10.6871 16.4367 10.6659 16.4253C10.6448 16.414 10.6188 16.4093 10.5932 16.4121C10.5676 16.4149 10.5444 16.4251 10.5284 16.4406C10.5124 16.456 10.5048 16.4756 10.5072 16.4951V16.4951ZM12.1934 16.7092C12.1934 16.7092 11.6826 15.3387 10.8221 14.8069C10.8221 14.8069 10.7145 14.6229 11.0103 14.7659C11.306 14.9093 12.3278 15.5639 12.3545 16.3411C12.3816 17.1181 12.1934 16.7092 12.1934 16.7092ZM12.0858 14.9296C12.0858 14.9296 12.4891 15.359 12.4891 15.5226C12.4891 15.6862 12.8657 15.7274 12.7582 15.4409C12.6504 15.1544 12.4624 14.9705 12.2203 14.8681C11.9783 14.7657 12.0858 14.9296 12.0858 14.9296V14.9296ZM22.5656 3.31169C22.5656 3.31169 23.5874 3.33214 24.7701 4.21171C24.7701 4.21171 25.4154 4.62074 25.3885 4.72299C25.3616 4.82525 23.6676 3.70027 22.8073 3.55711C21.9472 3.41395 22.5656 3.31169 22.5656 3.31169ZM24.0177 4.82525C23.8831 4.78435 22.969 4.66164 22.6731 4.8048C22.3776 4.94796 22.5116 4.70254 22.6193 4.62074C22.7271 4.53893 23.6143 4.39577 24.0444 4.66164C24.4746 4.92751 24.0177 4.82525 24.0177 4.82525V4.82525ZM25.1736 5.80707C25.1736 5.80707 24.5552 5.80707 24.4746 5.86842C24.3937 5.92978 24.2057 6.23655 24.2595 6.40016C24.3133 6.56377 24.3937 6.09339 24.555 6.05249L25.1198 5.90933L25.1736 5.80707V5.80707ZM26.7333 5.74572L25.7653 6.05249C25.7653 6.05249 25.6848 6.33881 25.8457 6.54332L26.0608 6.68648C26.0608 6.68648 26.007 6.257 26.2223 6.13414C26.4376 6.01128 26.7333 5.88873 26.7333 5.88873C26.7333 5.88873 26.8944 5.78662 26.7333 5.74572V5.74572ZM22.2696 8.03658C22.2696 8.03658 22.2085 7.41986 22.5924 7.15702C22.8613 6.97295 22.3774 7.05476 22.3774 7.05476C22.3774 7.05476 22.079 7.50287 22.1354 7.97523C22.1892 8.42516 22.2696 8.03658 22.2696 8.03658V8.03658ZM26.2763 9.20247C26.2763 9.20247 25.1467 8.09794 27.1366 8.09794C27.1366 8.09794 27.1904 7.95478 27.0826 7.97508C26.9753 7.99553 26.1685 8.03643 27.0557 7.6683C27.0557 7.6683 27.0557 7.5456 26.9215 7.56605C26.7869 7.5865 25.4156 8.09794 26.4641 7.38198C26.4641 7.38198 26.2763 7.30018 25.7115 7.40244C25.1467 7.50469 25.4422 7.13657 25.7384 6.99341C25.7384 6.99341 25.039 7.11611 24.7703 7.23882C24.5017 7.36153 24.2597 7.40244 24.5552 6.9116C24.5552 6.9116 24.4748 6.82979 24.3937 6.9116C24.3133 6.99341 24.1249 7.40243 23.6947 7.38198L23.6678 7.03431C23.6678 7.03431 22.6729 7.87297 22.6191 8.03658C22.5654 8.20019 22.5387 8.81389 22.8073 9.05931L22.9147 8.62983C22.9147 8.62983 22.9955 8.52757 23.2106 8.81389C23.2106 8.81389 23.3988 8.79344 23.4257 8.71163C23.4257 8.71163 23.6676 8.67073 23.9901 8.99795C23.9901 8.99795 24.1783 9.05931 24.1783 8.95705C24.1783 8.85479 24.1514 8.67073 24.2322 8.58892C24.3127 8.50712 24.6355 9.28442 24.9848 9.42758C24.9848 9.42758 25.0386 9.16171 25.0657 9.01855C25.0657 9.01855 25.3612 9.26397 25.5496 9.30487V8.87539C25.5496 8.87539 25.6569 8.83449 25.9262 9.07991C26.1954 9.32517 26.2763 9.20247 26.2763 9.20247V9.20247ZM29.7315 8.80041C29.6821 8.70345 29.5793 8.5306 29.512 8.47939C29.4953 8.46467 29.4866 8.44569 29.4875 8.42627C29.4885 8.40685 29.4991 8.38842 29.5171 8.37468C29.5352 8.36095 29.5595 8.35293 29.585 8.35223C29.6105 8.35153 29.6355 8.35821 29.6548 8.37092C29.7739 8.46167 29.9049 8.71663 29.9193 8.74526C29.924 8.75464 29.9263 8.76464 29.926 8.77469C29.9257 8.78475 29.9227 8.79465 29.9174 8.80385C29.912 8.81304 29.9044 8.82134 29.8948 8.82827C29.8852 8.83521 29.8739 8.84064 29.8616 8.84426C29.8493 8.84788 29.8361 8.84962 29.8229 8.84938C29.8097 8.84913 29.7967 8.84691 29.7846 8.84284C29.7725 8.83876 29.7616 8.83292 29.7525 8.82564C29.7434 8.81836 29.7362 8.80979 29.7315 8.80041V8.80041ZM29.2993 8.91902C29.2969 8.91402 29.0862 8.41698 28.8574 8.18474C28.8428 8.16839 28.837 8.14838 28.8413 8.12887C28.8455 8.10936 28.8595 8.09185 28.8804 8.08C28.9012 8.06815 28.9272 8.06286 28.953 8.06524C28.9788 8.06763 29.0024 8.07749 29.0189 8.09279C29.2683 8.34563 29.4821 8.85085 29.4911 8.87236C29.4951 8.88194 29.4966 8.89203 29.4955 8.90205C29.4944 8.91208 29.4908 8.92184 29.4847 8.93078C29.4786 8.93972 29.4703 8.94766 29.4602 8.95416C29.4501 8.96065 29.4385 8.96557 29.4259 8.96864C29.4133 8.9717 29.4 8.97285 29.3869 8.97201C29.3737 8.97118 29.3608 8.96838 29.3491 8.96377C29.3373 8.95916 29.3269 8.95284 29.3184 8.94516C29.3098 8.93748 29.3033 8.9286 29.2993 8.91902ZM28.8399 8.95462C28.7688 8.73026 28.6007 8.37714 28.4669 8.33184C28.4445 8.32261 28.4276 8.30733 28.4194 8.28902C28.4112 8.27071 28.4124 8.25073 28.4226 8.23305C28.4329 8.21537 28.4516 8.20128 28.4749 8.19359C28.4983 8.1859 28.5245 8.18518 28.5485 8.19156C28.8224 8.28397 29.0024 8.81343 29.0359 8.91872C29.039 8.92851 29.0395 8.93867 29.0374 8.94861C29.0354 8.95856 29.0307 8.96809 29.0238 8.97668C29.0169 8.98527 29.0079 8.99274 28.9972 8.99866C28.9865 9.00459 28.9743 9.00885 28.9615 9.01121C28.9486 9.01356 28.9353 9.01397 28.9222 9.0124C28.9091 9.01083 28.8966 9.00732 28.8853 9.00207C28.874 8.99682 28.8642 8.98992 28.8564 8.98178C28.8486 8.97364 28.843 8.96441 28.8399 8.95462ZM28.4157 9.0287C28.3313 8.88206 28.1994 8.70512 28.1333 8.67512C28.1115 8.66425 28.096 8.64738 28.0902 8.62804C28.0844 8.60869 28.0886 8.58838 28.102 8.57136C28.1154 8.55434 28.137 8.54193 28.1622 8.53673C28.1873 8.53153 28.2142 8.53395 28.2371 8.54347C28.3914 8.61392 28.5665 8.90872 28.6003 8.9672C28.6109 8.98587 28.6114 9.00698 28.6016 9.02591C28.5919 9.04485 28.5726 9.06007 28.5481 9.06824C28.536 9.07226 28.523 9.07443 28.5098 9.07462C28.4966 9.07481 28.4835 9.07302 28.4712 9.06935C28.4589 9.06568 28.4476 9.0602 28.4381 9.05322C28.4286 9.04625 28.421 9.03792 28.4157 9.0287V9.0287ZM27.7898 9.13232C27.7681 9.02582 27.7026 8.91569 27.658 8.90993C27.6442 8.90891 27.6308 8.90575 27.6187 8.90063C27.6065 8.89552 27.5959 8.88856 27.5875 8.8802C27.5791 8.87183 27.573 8.86224 27.5696 8.85201C27.5662 8.84178 27.5657 8.83114 27.5679 8.82073C27.5702 8.81033 27.5753 8.8004 27.5828 8.79154C27.5903 8.78269 27.6002 8.77511 27.6117 8.76927C27.6232 8.76343 27.6362 8.75945 27.6499 8.75759C27.6635 8.75573 27.6775 8.75602 27.691 8.75844C27.9131 8.78662 27.9784 9.05521 27.9889 9.10884C27.993 9.12893 27.9865 9.14943 27.9707 9.16584C27.9549 9.18225 27.9312 9.19322 27.9048 9.19633C27.8784 9.19944 27.8514 9.19445 27.8299 9.18245C27.8083 9.17044 27.7939 9.15241 27.7898 9.13232V9.13232ZM25.8093 10.4194C25.7563 10.4036 25.2889 10.2615 25.1666 10.0996C25.16 10.0908 25.1558 10.0812 25.1541 10.0712C25.1525 10.0612 25.1534 10.051 25.1569 10.0413C25.1604 10.0316 25.1663 10.0225 25.1744 10.0145C25.1826 10.0065 25.1927 9.99985 25.2042 9.99485C25.2157 9.98984 25.2284 9.98661 25.2415 9.98534C25.2547 9.98407 25.268 9.98478 25.2808 9.98743C25.2936 9.99008 25.3056 9.99462 25.316 10.0008C25.3265 10.007 25.3353 10.0146 25.3419 10.0234C25.4072 10.1102 25.7079 10.2247 25.8822 10.2762C25.9053 10.2845 25.9234 10.2992 25.9329 10.3173C25.9424 10.3354 25.9425 10.3555 25.9333 10.3736C25.9241 10.3918 25.9061 10.4066 25.8831 10.4151C25.8601 10.4236 25.8337 10.4251 25.8093 10.4194V10.4194ZM22.9919 10.1855C22.8336 10.0013 22.465 9.55893 22.465 9.42758C22.465 9.40725 22.4756 9.38776 22.4945 9.37338C22.5134 9.359 22.539 9.35093 22.5658 9.35093C22.5925 9.35093 22.6181 9.359 22.637 9.37338C22.6559 9.38776 22.6665 9.40725 22.6665 9.42758V9.42698C22.6723 9.49591 22.9278 9.83085 23.1608 10.1016C23.1754 10.1186 23.1806 10.1394 23.1751 10.1593C23.1696 10.1792 23.1539 10.1966 23.1315 10.2078C23.1091 10.2189 23.0819 10.2228 23.0557 10.2186C23.0295 10.2145 23.0066 10.2025 22.9919 10.1855ZM23.4094 11.119C23.3056 11.1058 22.3875 10.9813 22.1553 10.6722C22.142 10.6546 22.1385 10.6337 22.1455 10.6141C22.1525 10.5944 22.1695 10.5777 22.1927 10.5676C22.2158 10.5575 22.2434 10.5548 22.2692 10.5602C22.2949 10.5655 22.3169 10.5784 22.3302 10.596C22.4869 10.8046 23.1863 10.9349 23.4426 10.9675H23.4422C23.4671 10.972 23.4889 10.9835 23.503 10.9998C23.5172 11.016 23.5228 11.0357 23.5186 11.0549C23.5145 11.0741 23.5009 11.0914 23.4806 11.1033C23.4603 11.1152 23.4348 11.1208 23.4094 11.119V11.119ZM30.4978 10.6138C30.4978 10.6138 30.0403 10.532 30.3632 9.75465C30.3632 9.75465 30.5514 9.48879 29.476 9.44788C29.476 9.44788 29.7179 9.6524 29.6642 9.79556C29.6642 9.79556 28.8038 9.61149 28.7228 9.63195C28.6423 9.6524 28.2389 9.87736 28.1311 9.95917C28.0238 10.0411 27.8356 9.97962 27.8356 9.97962C27.8356 9.97962 27.7818 9.85691 27.9429 9.77511C28.1044 9.6933 27.8892 9.55014 27.6741 9.61149C27.459 9.67285 26.8138 9.7342 26.76 9.85691C26.76 9.85691 27.217 9.85691 27.2975 9.95917C27.3783 10.0614 27.3783 10.225 27.3515 10.3068L27.889 10.3477C27.889 10.3477 28.2387 10.4909 28.2387 10.5932L28.346 10.5318L28.3191 10.1432C28.3191 10.1432 28.5611 9.85691 28.8839 9.89781C28.8839 9.89781 29.1259 10.1228 29.1528 10.4091C29.1528 10.4091 29.3678 10.3477 29.3678 10.0205C29.3678 10.0205 29.798 10.0205 29.8522 10.1432C29.8522 10.1432 30.0399 10.7365 29.2069 10.7978C29.2069 10.7978 29.1261 10.9205 29.2338 10.941L30.0674 10.8592C30.0674 10.8592 30.1212 12.0046 31.062 12.4545L31.1159 11.6774C31.1159 11.6774 29.8255 11.4524 30.578 10.716L30.4978 10.6138V10.6138Z" fill="black"/>
<path fill-rule="evenodd" clip-rule="evenodd" d="M27.2973 11.7384C27.2973 11.7384 26.2219 11.9634 26.8403 12.0658V12.1681C26.8403 12.1681 26.4906 12.1476 26.5715 12.2499C26.6519 12.3521 26.6519 12.4544 26.5446 12.4544C26.4368 12.4544 26.3831 12.5362 26.4368 12.5975C26.4906 12.6589 26.168 12.7407 26.168 12.7407C26.168 12.7407 26.1142 12.8839 26.4368 12.8225L26.4099 13.0066C26.4099 13.0066 26.2217 12.9861 26.168 13.0679C26.1142 13.1497 26.4904 13.2726 26.867 13.3135C27.2436 13.3545 28.83 13.4157 30.3895 13.9475L30.3626 14.1726C30.3626 14.1726 29.0184 13.5794 26.0067 13.3135C26.0067 13.3135 24.6355 13.8045 24.0708 14.2543C24.0708 14.2543 23.7712 14.2356 24.1512 14.0702C24.5278 13.9066 24.4471 13.7634 24.4471 13.7634L24.5545 13.5998C24.5545 13.5998 24.5545 13.3135 24.3394 13.4157C24.1243 13.5182 22.9143 13.9475 22.1884 15.134C22.1884 15.134 22.0538 15.1544 22.1884 14.8067C22.323 14.4591 22.323 14.1931 22.108 14.1726V14.0702C22.108 14.0702 22.6186 13.7634 22.1884 13.8045C22.1884 13.8045 22.0002 13.9473 22.0269 13.7634C22.0536 13.5795 23.3174 12.884 23.3174 12.884C23.3174 12.884 23.6402 12.5977 23.3443 12.6386C23.0487 12.6795 22.9681 12.8431 22.9681 12.8431C22.9681 12.8431 22.6453 12.884 23.1023 12.5363C23.3443 12.3523 22.7799 12.5363 22.7799 12.5363C22.7799 12.5363 22.5106 12.475 22.7261 12.3727C22.9408 12.2703 23.3443 12.0453 23.3443 12.0453C23.3443 12.0453 23.3174 11.9226 23.1565 11.9431C22.995 11.9635 22.8872 11.759 23.694 11.7795C23.694 11.7795 23.9628 11.5545 22.8872 11.4523C21.8118 11.35 23.1565 11.2068 23.7475 11.3704C24.3392 11.5341 24.1777 11.125 24.0704 11.084C23.9626 11.0431 23.5056 10.7977 23.4787 10.6749C23.4518 10.5522 23.6938 10.634 23.8553 10.7772C24.0168 10.9204 24.1777 10.9817 24.1777 10.8999C24.1777 10.8181 24.205 10.7568 24.3392 10.7568C24.4738 10.7568 24.5543 10.6545 24.393 10.5931C24.2319 10.5318 23.6135 10.2455 23.6135 10.1023C23.6135 9.95915 23.6673 9.95915 23.9091 10.0819C24.151 10.2046 24.3392 10.4909 24.8504 10.5318C25.361 10.5727 24.7696 10.3273 24.7696 10.3273C24.7696 10.3273 24.5276 10.1228 24.8504 10.1841C25.1728 10.2455 25.4463 10.6496 26.1678 10.7365C26.6784 10.7978 25.9796 10.8796 25.8722 10.9205C25.7645 10.9614 25.926 10.9614 26.1678 11.0432C26.4095 11.125 26.0063 11.1455 25.8989 11.1659C25.7912 11.1865 25.8181 11.3091 25.8181 11.3091C25.8181 11.3091 26.0332 11.4523 25.8989 11.5341C25.7643 11.6159 26.0332 11.6159 26.0332 11.6159L26.06 11.7386C26.06 11.7386 26.7057 11.6568 27.0819 11.6159C27.4589 11.5748 27.2973 11.7384 27.2973 11.7384V11.7384Z" fill="black"/>
<path fill-rule="evenodd" clip-rule="evenodd" d="M30.5242 13.8045C30.5242 13.8045 29.3677 13.0679 27.9158 12.8021L27.9426 12.6998C27.9426 12.6998 29.5293 12.8839 30.6046 13.5385C30.6048 13.5385 30.7662 13.7021 30.5242 13.8045V13.8045ZM29.9594 14.3565C29.9594 14.3565 29.8252 14.1113 29.6097 14.1113L26.4638 14.0702C26.4638 14.0702 25.5228 14.2134 25.3615 14.3158C25.3617 14.3158 28.0237 14.1929 29.9594 14.3565ZM29.5561 14.7862C29.5561 14.7862 29.9327 14.5813 29.3679 14.561C28.8036 14.5406 26.1416 15.1134 25.4963 15.5224C25.4961 15.5223 28.6689 14.7246 29.5561 14.7862ZM31.0619 14.4589C31.0619 14.377 31.0081 14.3158 30.8468 14.3158C30.6855 14.3158 30.6317 14.4179 30.6317 14.4794C30.6317 14.5406 30.7395 14.6634 30.8468 14.643C30.9546 14.6225 31.0619 14.4589 31.0619 14.4589ZM30.6315 14.8474C30.5242 14.8678 30.4433 15.011 30.6046 15.0519C30.7662 15.0929 30.7928 14.9293 30.7928 14.9293L30.6315 14.8474ZM31.1963 14.8474L31.3578 14.7453C31.3578 14.7453 31.4652 14.8269 31.3847 14.9089C31.3043 14.9905 31.1965 14.9905 31.1965 14.9905C31.1965 14.9905 30.901 15.0517 30.9546 14.9089C31.0081 14.7654 31.1427 14.7862 31.1963 14.8474V14.8474ZM30.6588 15.2567C30.6588 15.2567 30.8199 15.2976 30.793 15.3588C30.7662 15.4203 30.6588 15.4408 30.6588 15.4408C30.6588 15.4408 30.5242 15.3179 30.6588 15.2567ZM31.2501 15.3791C31.2501 15.3791 31.546 15.4815 31.4652 15.543C31.3847 15.6042 31.2232 15.5635 31.2232 15.5635L31.2501 15.3791ZM31.6534 15.1543C31.6534 15.1543 31.546 15.3179 31.6534 15.3179C31.7611 15.3179 31.8684 15.195 31.8684 15.195C31.8684 15.195 31.788 15.0929 31.6534 15.1543V15.1543ZM31.9226 15.5223C31.9226 15.5223 31.8953 15.3791 31.788 15.4201C31.6802 15.4611 31.6534 15.5223 31.7342 15.543C31.8147 15.5635 31.9224 15.6451 31.9224 15.6451C31.9224 15.6451 32.3259 15.5635 31.9226 15.5223ZM32.1646 15.2974C32.1646 15.2974 32.1106 15.195 32.2183 15.195C32.3261 15.195 32.353 15.2974 32.353 15.2974C32.353 15.2974 32.245 15.3586 32.1646 15.2974ZM23.6409 17.9154C23.6409 17.9154 23.6946 18.611 23.9364 18.7337C24.1784 18.8563 24.2057 19.1222 23.5331 18.8154C22.861 18.5086 23.2376 17.8133 23.2376 17.8133C23.2376 17.8133 23.5871 17.486 23.6409 17.9154V17.9154ZM24.4934 16.4948C24.491 16.507 24.2807 17.7121 25.7479 18.6125C25.7668 18.6258 25.7785 18.644 25.7804 18.6635C25.7824 18.6831 25.7744 18.7024 25.7583 18.7177C25.7421 18.7329 25.7189 18.7429 25.6934 18.7455C25.6679 18.7482 25.642 18.7434 25.621 18.7321C24.0613 17.7746 24.2837 16.5254 24.2939 16.4727C24.299 16.4534 24.3136 16.4364 24.3347 16.425C24.3558 16.4137 24.3819 16.409 24.4074 16.4118C24.433 16.4146 24.4562 16.4248 24.4722 16.4403C24.4882 16.4557 24.4958 16.4752 24.4934 16.4948V16.4948ZM22.8072 16.7089C22.8072 16.7089 23.3179 15.3383 24.1784 14.8066C24.1784 14.8066 24.2861 14.6225 23.9902 14.7656C23.6946 14.909 22.6728 15.5636 22.6459 16.3408C22.6191 17.1178 22.8072 16.7089 22.8072 16.7089V16.7089ZM22.9146 14.9293C22.9146 14.9293 22.5113 15.3586 22.5113 15.5223C22.5113 15.6859 22.1351 15.7271 22.2425 15.4406C22.3502 15.1541 22.5384 14.9702 22.7804 14.8678C23.0223 14.7654 22.9146 14.9293 22.9146 14.9293ZM17.5842 1.8416C15.8439 1.8416 14.6982 2.09914 14.1641 2.25487V24.4791C14.6982 24.635 15.8441 24.8925 17.5842 24.8925C19.3246 24.8925 20.4705 24.6351 21.0046 24.4791V2.25487C20.4701 2.09914 19.3242 1.8416 17.5842 1.8416V1.8416Z" fill="black"/>
<path fill-rule="evenodd" clip-rule="evenodd" d="M17.5842 1.8416C19.3246 1.8416 20.4705 2.09914 21.0046 2.25487V24.4791C20.4701 24.635 19.3242 24.8925 17.5842 24.8925C15.8439 24.8925 14.6982 24.6351 14.1641 24.4791V2.25487C14.6982 2.09914 15.8441 1.8416 17.5842 1.8416V1.8416Z" fill="black"/>
<path fill-rule="evenodd" clip-rule="evenodd" d="M15.1238 9.15094H20.3471V6.71192H19.4999V7.61708C19.4999 7.61708 19.3587 8.46074 18.5119 8.46074H17.2615V3.78175C17.2615 3.78175 17.2009 3.30622 18.0278 3.30622V2.76933H15.0027V3.30622C15.0027 3.30622 15.749 3.22957 15.749 3.82781V7.95446C15.749 7.95446 15.8497 8.47604 15.1238 8.49134V9.15094V9.15094ZM20.3267 11.9737V9.82599H15.134V10.455C15.9204 10.4704 15.7691 10.9305 15.7691 10.9305V15.195C15.7691 15.195 15.9204 15.6554 15.134 15.6706V16.2996H20.3269V13.8911H19.5001V14.7504C19.5001 14.7504 19.4798 15.6401 18.2698 15.6401H17.3019V13.2952C18.4637 13.3421 18.3405 14.1979 18.3405 14.1979H19.0363V11.7436H18.3405C18.3405 12.5497 17.615 12.6481 17.3019 12.653V10.4856H18.2698C19.4798 10.4856 19.5001 11.3755 19.5001 11.3755V11.9737H20.3267ZM17.5034 16.9443V16.944H17.4883V16.9443C16.3026 16.9517 15.0029 17.8222 15.0029 18.7234V22.0332C15.0029 22.9345 16.3026 23.8049 17.4883 23.8124V23.8127C17.4909 23.8127 17.4933 23.8127 17.4959 23.8124C17.4985 23.8127 17.5008 23.8127 17.5034 23.8127V23.8124C18.6894 23.8049 19.9888 22.9345 19.9888 22.0332V18.7234C19.9888 17.8222 18.6894 16.9517 17.5034 16.9443V16.9443Z" fill="white"/>
<path fill-rule="evenodd" clip-rule="evenodd" d="M18.3153 22.1101C18.3153 22.1101 18.3352 23.0551 17.496 23.061C16.657 23.0551 16.6767 22.1101 16.6767 22.1101V18.647C16.6767 18.647 16.6568 17.702 17.496 17.6961C18.335 17.702 18.3153 18.647 18.3153 18.647V22.1101V22.1101Z" fill="black"/>
<path fill-rule="evenodd" clip-rule="evenodd" d="M19.7586 24.4729C20.1693 24.4729 20.5194 24.2302 20.5194 23.8986C20.5194 23.5699 20.1693 23.3284 19.7586 23.3284C19.3448 23.3284 18.9943 23.5699 18.9943 23.8986C18.9943 24.2302 19.3448 24.4729 19.7586 24.4729Z" fill="white"/>
<path fill-rule="evenodd" clip-rule="evenodd" d="M19.1455 23.8983C19.1455 23.6269 19.4144 23.4236 19.7585 23.4236C20.0997 23.4236 20.3681 23.6269 20.3681 23.8983C20.3681 24.1737 20.0997 24.377 19.7585 24.377C19.4142 24.3771 19.1455 24.1738 19.1455 23.8983V23.8983Z" fill="black"/>
<path fill-rule="evenodd" clip-rule="evenodd" d="M19.5994 23.944H19.7507L19.9797 24.2305H20.1279L19.8802 23.9396C20.0078 23.9275 20.1058 23.8763 20.1058 23.7577C20.1058 23.6275 20.0038 23.5701 19.7985 23.5701H19.4683V24.2305H19.5994V23.944V23.944Z" fill="white"/>
<path fill-rule="evenodd" clip-rule="evenodd" d="M19.5988 23.8596V23.6543H19.7781C19.8695 23.6543 19.9671 23.6698 19.9671 23.7518C19.9671 23.8536 19.8675 23.8598 19.7562 23.8598H19.5988V23.8596Z" fill="black"/>
</svg>
